<svg xmlns="http://www.w3.org/2000/svg" width="32" height="32" viewBox="0 0 256 256"><path fill="currentColor" d="M96 68a28 28 0 1 1-28-28a28 28 0 0 1 28 28Zm92 92a28 28 0 1 0 28 28a28 28 0 0 0-28-28Z" opacity=".2"/><path fill="currentColor" d="M104 68a36 36 0 1 0-44 35.1v49.8a36 36 0 1 0 16 0v-49.8A36.1 36.1 0 0 0 104 68Zm-56 0a20 20 0 1 1 20 20a20.1 20.1 0 0 1-20-20Zm40 120a20 20 0 1 1-20-20a20.1 20.1 0 0 1 20 20Zm108-35.1v-33a55.5 55.5 0 0 0-16.4-39.6L155.3 56H176a8 8 0 0 0 0-16h-40a8 8 0 0 0-8 8v40a8 8 0 0 0 16 0V67.3l24.3 24.3a40 40 0 0 1 11.7 28.3v33a36 36 0 1 0 16 0Zm-8 55.1a20 20 0 1 1 20-20a20.1 20.1 0 0 1-20 20Z"/></svg>